<svg width="70" height="70" viewBox="0 0 70 70" fill="none"
  xmlns="http://www.w3.org/2000/svg">
  <path d="M58.9396 0L69.9998 11.0587L61.5682 19.4929L50.508 8.43413L58.9396 0ZM18.4297 51.5632H29.4899L56.3552 24.7015L45.295 13.6428L18.4297 40.5045V51.5632Z" fill="white"/>
  <path d="M58.9878 62.6275H19.0162C18.9203 62.6275 18.8208 62.6644 18.7249 62.6644C18.6033 62.6644 18.4816 62.6312 18.3563 62.6275H7.37348V11.0201H32.6166L39.9901 3.64758H7.37348C3.307 3.64758 0 6.95046 0 11.0201V62.6275C0 66.6972 3.307 70 7.37348 70H58.9878C60.9434 70 62.8189 69.2233 64.2016 67.8407C65.5844 66.4581 66.3613 64.5828 66.3613 62.6275V30.6751L58.9878 38.0476V62.6275Z" fill="white"/>
</svg>
